<svg width="301" height="82" viewBox="0 0 301 82" fill="none" xmlns="http://www.w3.org/2000/svg">
<g clip-path="url(#clip0_2803_3883)">
<g clip-path="url(#clip1_2803_3883)">
<g clip-path="url(#clip2_2803_3883)">
<g clip-path="url(#clip3_2803_3883)">
<path d="M21.0014 66.1047C19.763 66.1047 18.502 65.9554 17.2185 65.657C15.935 65.3542 14.8654 64.9577 14.0098 64.4678L14.1786 59.9247H14.5164L15.5635 62.096C15.8787 62.7196 16.2165 63.2697 16.5768 63.7463C16.937 64.2273 17.4324 64.6014 18.0629 64.8687C18.5133 65.0914 18.9479 65.2406 19.3667 65.3163C19.781 65.3965 20.2471 65.4366 20.765 65.4366C22.1386 65.4366 23.2239 65.0691 24.021 64.3342C24.8227 63.5993 25.2235 62.6528 25.2235 61.4948C25.2235 60.4035 24.9533 59.5506 24.4128 58.9359C23.8724 58.3257 23.0055 57.7311 21.8121 57.1521L20.4272 56.5508C18.4907 55.7045 16.9776 54.7291 15.8877 53.6245C14.7934 52.5244 14.2462 51.0612 14.2462 49.2351C14.2462 47.9212 14.5907 46.7854 15.2798 45.8278C15.9643 44.8702 16.9213 44.1353 18.1507 43.6231C19.3757 43.1108 20.81 42.8547 22.4538 42.8547C23.6472 42.8547 24.7799 43.0106 25.8517 43.3224C26.919 43.6342 27.8468 44.0573 28.6349 44.5918L28.4322 48.6004H28.0945L26.7096 46.095C26.3268 45.3156 25.944 44.7633 25.5612 44.4381C25.1784 44.1174 24.7393 43.8903 24.244 43.7567C23.9512 43.6676 23.681 43.6052 23.4333 43.5696C23.1856 43.5384 22.8704 43.5228 22.4876 43.5228C21.3392 43.5228 20.371 43.8502 19.5828 44.5049C18.7947 45.1641 18.4007 46.0505 18.4007 47.164C18.4007 48.2998 18.7047 49.2062 19.3126 49.8832C19.9206 50.5646 20.81 51.1726 21.981 51.7071L23.5347 52.3752C25.6963 53.3105 27.25 54.306 28.1958 55.3616C29.1415 56.4216 29.6144 57.7868 29.6144 59.457C29.6144 61.4168 28.8668 63.0136 27.3716 64.2473C25.872 65.4855 23.7486 66.1047 21.0014 66.1047ZM39.9161 65.5034H31.337V65.1693L32.0125 64.9021C32.4628 64.7462 32.7601 64.5346 32.9042 64.2674C33.0528 64.0001 33.1271 63.6549 33.1271 63.2318V45.761C33.1271 45.3156 33.0528 44.9593 32.9042 44.692C32.7601 44.4248 32.4628 44.2132 32.0125 44.0573L31.337 43.7901V43.456H39.9161V43.7901L39.3419 44.0239C38.9141 44.1798 38.6214 44.3847 38.4638 44.6386C38.3061 44.8969 38.2273 45.2488 38.2273 45.6942V53.8116H46.2998V45.6942C46.2998 45.2488 46.2255 44.8969 46.0769 44.6386C45.9328 44.3847 45.6356 44.1798 45.1852 44.0239L44.5773 43.7901V43.456H53.1902V43.7901L52.5147 44.0573C52.0868 44.2132 51.7941 44.4248 51.6365 44.692C51.4789 44.9593 51.4 45.3156 51.4 45.761V63.2318C51.4 63.6549 51.4789 64.0001 51.6365 64.2674C51.7941 64.5346 52.0868 64.7462 52.5147 64.9021L53.1902 65.1693V65.5034H44.5773V65.1693L45.1852 64.9689C45.6356 64.7907 45.9328 64.5725 46.0769 64.3141C46.2255 64.0603 46.2998 63.7106 46.2998 63.2652V54.4797H38.2273V63.2652C38.2273 64.0892 38.5989 64.6571 39.3419 64.9689L39.9161 65.1693V65.5034ZM65.3834 66.1047C63.6721 66.1047 62.1567 65.804 60.8371 65.2027C59.5221 64.6014 58.4976 63.6483 57.7635 62.3432C57.0339 61.0427 56.6691 59.3234 56.6691 57.1855V45.6608C56.6691 44.8145 56.23 44.2577 55.3519 43.9905L54.6088 43.7901V43.456H63.9648V43.7901L62.9853 44.0573C62.1521 44.2578 61.7356 44.8145 61.7356 45.7276V58.054C61.7356 60.1251 62.1724 61.6551 63.0461 62.6439C63.9288 63.6371 65.192 64.1338 66.8358 64.1338C68.5471 64.1338 69.9027 63.6104 70.9024 62.5637C71.9067 61.517 72.4089 60.0361 72.4089 58.1208V45.8612C72.4089 45.4158 72.3346 45.0194 72.1859 44.672C72.0418 44.329 71.7446 44.1019 71.2942 43.9905L70.4498 43.7901V43.456H75.1785V43.7901L74.2666 44.0239C73.8387 44.113 73.5573 44.3246 73.4221 44.6586C73.287 44.9927 73.2195 45.3824 73.2195 45.8278V58.054C73.2195 59.6797 72.893 61.0983 72.24 62.3098C71.587 63.5258 70.675 64.4611 69.5041 65.1159C68.3332 65.7751 66.9596 66.1047 65.3834 66.1047ZM80.7786 65.5034H76.1175V65.1693L76.9619 64.8687C77.4122 64.6905 77.7613 64.4723 78.009 64.2139C78.2567 63.96 78.4593 63.5993 78.6169 63.1316L85.5748 43.3892H88.4458L95.3024 63.2652C95.4825 63.7552 95.6852 64.1271 95.9104 64.3809C96.1355 64.6393 96.4846 64.8575 96.9574 65.0357L97.3627 65.1693V65.5034H88.7836V65.1693L89.2902 65.0023C89.7631 64.8241 90.0513 64.5725 90.1549 64.2473C90.254 63.9266 90.236 63.5436 90.1008 63.0982L88.5134 58.2879H81.015L79.3938 62.998C79.2362 63.4879 79.1866 63.8776 79.2452 64.1672C79.2992 64.4567 79.5627 64.6905 80.0355 64.8687L80.7786 65.1693V65.5034ZM84.8993 47.2308L81.2515 57.6198H88.3107L84.8993 47.2308ZM104.118 65.5034H98.984V65.1693L100.099 64.8353C100.504 64.7239 100.797 64.5057 100.977 64.1805C101.157 63.8598 101.247 63.4768 101.247 63.0314V46.9636C100.999 46.4291 100.803 46.0282 100.659 45.761C100.511 45.4937 100.346 45.2644 100.166 45.0728C99.986 44.8858 99.7383 44.6475 99.4231 44.358L98.8489 43.7901V43.456H104.827L116.041 58.5885V45.9948C116.041 45.5494 115.969 45.1486 115.825 44.7922C115.676 44.4359 115.377 44.2021 114.926 44.0907L113.812 43.7901V43.456H118.642V43.7901L117.73 44.0907C117.324 44.2243 117.077 44.4582 116.987 44.7922C116.897 45.1263 116.852 45.516 116.852 45.9614V65.6036H114.96L102.058 48.0659V63.0314C102.058 63.4768 102.125 63.8554 102.26 64.1672C102.395 64.4789 102.677 64.7016 103.105 64.8353L104.118 65.1693V65.5034ZM132.152 66.1047C129.855 66.1047 127.833 65.6303 126.086 64.6816C124.343 63.7373 122.981 62.39 121.999 60.6396C121.022 58.8936 120.533 56.8292 120.533 54.4463C120.533 52.1302 121.017 50.1036 121.986 48.3666C122.954 46.6295 124.354 45.2755 126.187 44.3045C128.025 43.338 130.25 42.8547 132.862 42.8547C134.055 42.8547 135.163 42.9884 136.185 43.2556C137.212 43.5228 138.187 43.9126 139.11 44.4248L139.245 49.1015H138.907L137.016 45.6274C136.723 45.0706 136.453 44.6697 136.205 44.4248C135.958 44.1798 135.642 43.9905 135.26 43.8569C134.899 43.7455 134.566 43.6631 134.26 43.6097C133.958 43.5518 133.56 43.5228 133.064 43.5228C131.668 43.5228 130.434 43.8903 129.362 44.6252C128.295 45.3601 127.469 46.5293 126.883 48.1327C126.298 49.7362 126.005 51.8407 126.005 54.4463C126.005 57.0296 126.28 59.1341 126.829 60.7598C127.383 62.3856 128.167 63.5703 129.18 64.3141C130.193 65.0624 131.364 65.4366 132.693 65.4366C132.895 65.4366 133.091 65.4187 133.28 65.3831C133.474 65.3519 133.661 65.3141 133.841 65.2695C134.269 65.2027 134.55 65.0246 134.685 64.735C134.821 64.4455 134.888 64.1003 134.888 63.6995V57.0853C134.888 56.2168 134.438 55.6823 133.537 55.4818L131.983 55.081V54.7469H141.508V55.081L141.035 55.2146C140.18 55.4818 139.752 56.0386 139.752 56.8849V64.1338C138.581 64.7796 137.392 65.2695 136.185 65.6036C134.983 65.9376 133.638 66.1047 132.152 66.1047ZM161.733 66.1047C159.549 66.1047 157.574 65.6659 155.809 64.7885C154.039 63.9066 152.636 62.5971 151.601 60.8601C150.565 59.123 150.047 56.9962 150.047 54.4797C150.047 52.5645 150.362 50.8831 150.993 49.4355C151.623 47.988 152.486 46.7743 153.58 45.7944C154.67 44.8145 155.931 44.0796 157.363 43.5896C158.79 43.0997 160.304 42.8547 161.902 42.8547C163.186 42.8547 164.368 42.9995 165.449 43.289C166.53 43.5785 167.543 43.9794 168.489 44.4916L168.624 48.6004H168.286L166.597 45.928C166.372 45.5049 166.124 45.1196 165.854 44.7722C165.584 44.4292 165.246 44.1687 164.841 43.9905C164.503 43.8346 164.172 43.7166 163.848 43.6364C163.519 43.5607 163.107 43.5228 162.612 43.5228C161.306 43.5228 160.119 43.868 159.052 44.5584C157.98 45.2488 157.124 46.389 156.485 47.9791C155.841 49.5736 155.519 51.7516 155.519 54.5131C155.519 57.2523 155.823 59.417 156.431 61.007C157.039 62.6016 157.867 63.7373 158.917 64.4144C159.961 65.0958 161.137 65.4366 162.443 65.4366C163.163 65.4366 163.738 65.3853 164.165 65.2829C164.593 65.1849 165.021 65.0357 165.449 64.8353C165.877 64.6571 166.203 64.3943 166.428 64.0469C166.654 63.7039 166.856 63.332 167.036 62.9312L168.522 59.6575H168.86L168.759 64.4344C167.813 64.9243 166.755 65.3252 165.584 65.637C164.413 65.9488 163.13 66.1047 161.733 66.1047ZM179.162 65.5034H170.482V65.1693L171.157 64.9021C171.607 64.7462 171.907 64.5346 172.055 64.2674C172.2 64.0001 172.272 63.6438 172.272 63.1984V45.761C172.272 45.3156 172.204 44.9593 172.069 44.692C171.934 44.4248 171.63 44.2132 171.157 44.0573L170.482 43.7901V43.456H179.162V43.7901L178.486 44.0573C178.036 44.2132 177.739 44.4248 177.595 44.692C177.446 44.9593 177.372 45.3156 177.372 45.761V63.1984C177.372 63.6438 177.446 63.9935 177.595 64.2473C177.739 64.5057 178.036 64.7239 178.486 64.9021L179.162 65.1693V65.5034ZM186.221 65.5034H181.087V65.1693L182.202 64.8353C182.607 64.7239 182.9 64.5057 183.08 64.1805C183.26 63.8598 183.35 63.4768 183.35 63.0314V46.9636C183.103 46.4291 182.904 46.0282 182.756 45.761C182.612 45.4937 182.45 45.2644 182.269 45.0728C182.089 44.8858 181.842 44.6475 181.526 44.358L180.952 43.7901V43.456H186.931L198.144 58.5885V45.9948C198.144 45.5494 198.07 45.1486 197.921 44.7922C197.777 44.4359 197.48 44.2021 197.03 44.0907L195.915 43.7901V43.456H200.745V43.7901L199.833 44.0907C199.428 44.2243 199.18 44.4582 199.09 44.7922C199 45.1263 198.955 45.516 198.955 45.9614V65.6036H197.063L184.161 48.0659V63.0314C184.161 63.4768 184.228 63.8554 184.364 64.1672C184.499 64.4789 184.78 64.7016 185.208 64.8353L186.221 65.1693V65.5034ZM219.558 65.5034H202.704V65.1693L203.481 64.8687C203.864 64.7128 204.127 64.5057 204.271 64.2473C204.42 63.9935 204.494 63.6438 204.494 63.1984V45.761C204.494 45.3156 204.431 44.9637 204.305 44.7054C204.183 44.4515 203.909 44.2466 203.481 44.0907L202.704 43.7901V43.456H218.883L219.085 48.6004H218.748L217.295 45.4603C217.093 45.0595 216.879 44.7366 216.654 44.4916C216.428 44.2466 216.091 44.1241 215.64 44.1241H209.561V53.7782H213.175C213.625 53.7782 213.967 53.6624 214.201 53.4308C214.44 53.1947 214.65 52.8763 214.83 52.4754L215.505 51.1392H215.843V57.1521H215.505L214.83 55.7491C214.627 55.3482 214.413 55.0298 214.188 54.7937C213.963 54.5621 213.625 54.4463 213.175 54.4463H209.561V64.8353H216.383C216.834 64.8353 217.183 64.7172 217.43 64.4812C217.678 64.2496 217.881 63.9222 218.038 63.4991L219.423 60.359H219.761L219.558 65.5034ZM225.834 65.5034H221.376V65.1693L222.051 64.9355C222.817 64.6905 223.199 64.0558 223.199 63.0314V45.928C223.199 45.4826 223.15 45.1263 223.051 44.859C222.947 44.5918 222.682 44.3691 222.254 44.1909L221.376 43.7901V43.456H227.894L234.143 59.6241L240.02 43.456H246.674V43.7901L246.133 43.9905C245.706 44.1464 245.413 44.3624 245.255 44.6386C245.098 44.9192 245.019 45.2822 245.019 45.7276V63.1984C245.019 63.6438 245.075 63.989 245.188 64.234C245.3 64.4789 245.571 64.6905 245.998 64.8687L246.674 65.1693V65.5034H238.264V65.1693L238.973 64.8687C239.401 64.6905 239.671 64.4789 239.784 64.234C239.896 63.989 239.952 63.6438 239.952 63.1984V55.6823L240.02 46.1284L232.961 65.5034H231.272L223.909 46.3623L224.01 54.6801V63.0982C224.01 63.5881 224.084 63.9823 224.233 64.2807C224.377 64.5836 224.663 64.8019 225.091 64.9355L225.834 65.1693V65.5034ZM252.348 65.5034H247.687V65.1693L248.532 64.8687C248.982 64.6905 249.331 64.4723 249.579 64.2139C249.826 63.96 250.029 63.5993 250.187 63.1316L257.145 43.3892H260.016L266.872 63.2652C267.052 63.7552 267.255 64.1271 267.48 64.3809C267.705 64.6393 268.054 64.8575 268.527 65.0357L268.932 65.1693V65.5034H260.353V65.1693L260.86 65.0023C261.333 64.8241 261.621 64.5725 261.725 64.2473C261.824 63.9266 261.806 63.5436 261.671 63.0982L260.083 58.2879H252.585L250.964 62.998C250.806 63.4879 250.756 63.8776 250.815 64.1672C250.869 64.4567 251.132 64.6905 251.605 64.8687L252.348 65.1693V65.5034ZM256.469 47.2308L252.821 57.6198H259.88L256.469 47.2308ZM277.377 66.1047C276.138 66.1047 274.877 65.9554 273.594 65.657C272.31 65.3542 271.24 64.9577 270.385 64.4678L270.554 59.9247H270.891L271.939 62.096C272.254 62.7196 272.592 63.2697 272.952 63.7463C273.312 64.2273 273.807 64.6014 274.438 64.8687C274.888 65.0914 275.321 65.2406 275.735 65.3163C276.154 65.3965 276.622 65.4366 277.14 65.4366C278.514 65.4366 279.599 65.0691 280.396 64.3342C281.198 63.5993 281.599 62.6528 281.599 61.4948C281.599 60.4035 281.328 59.5506 280.788 58.9359C280.247 58.3257 279.381 57.7311 278.187 57.1521L276.802 56.5508C274.866 55.7045 273.35 54.7291 272.256 53.6245C271.166 52.5244 270.621 51.0612 270.621 49.2351C270.621 47.9212 270.964 46.7854 271.648 45.8278C272.337 44.8702 273.294 44.1353 274.519 43.6231C275.749 43.1108 277.185 42.8547 278.829 42.8547C280.022 42.8547 281.153 43.0106 282.22 43.3224C283.292 43.6342 284.222 44.0573 285.01 44.5918L284.807 48.6004H284.47L283.085 46.095C282.702 45.3156 282.319 44.7633 281.936 44.4381C281.553 44.1174 281.114 43.8903 280.619 43.7567C280.326 43.6676 280.056 43.6052 279.808 43.5696C279.561 43.5384 279.245 43.5228 278.863 43.5228C277.714 43.5228 276.746 43.8502 275.958 44.5049C275.17 45.1641 274.776 46.0505 274.776 47.164C274.776 48.2998 275.08 49.2062 275.688 49.8832C276.296 50.5646 277.185 51.1726 278.356 51.7071L279.91 52.3752C282.071 53.3105 283.625 54.306 284.571 55.3616C285.517 56.4216 285.989 57.7868 285.989 59.457C285.989 61.4168 285.24 63.0136 283.74 64.2473C282.245 65.4855 280.124 66.1047 277.377 66.1047Z" fill="white"/>
</g>
</g>
</g>
</g>
<g clip-path="url(#clip4_2803_3883)">
<g clip-path="url(#clip5_2803_3883)">
<path d="M161.124 0L156.842 1.23552L158.924 6.82368L163.027 5.64704L161.124 0Z" fill="#EEE4C3"/>
<path d="M154.226 1.94141L148.635 3.52925L148.754 3.76477L149.824 6.64701L150.776 9.11773L156.367 7.52957L154.226 1.94141Z" fill="#EEE4C3"/>
<path d="M146.077 4.23511L141.141 5.64695L143.282 11.2354L148.218 9.82359L146.969 6.64695L146.077 4.23511Z" fill="#EEE4C3"/>
<path d="M138.582 6.35303L134.479 7.52967L136.382 13.1767L140.664 11.9415L138.582 6.35303Z" fill="#EEE4C3"/>
<path d="M136.383 13.1768V30.1179C136.383 31.1608 137.231 32.0001 138.286 32.0001H163.028C164.083 32.0001 164.932 31.1608 164.932 30.1179V13.1768H136.383ZM161.125 22.5883H140.189V16.9416H161.125L161.125 22.5883Z" fill="#EEE4C3"/>
</g>
</g>
<path d="M301 79H1V81H301V79Z" fill="url(#paint0_linear_2803_3883)"/>
<path d="M300.493 26H174V28.3021H300.493V26Z" fill="url(#paint1_linear_2803_3883)"/>
<path d="M126.493 26H0V28.3021H126.493V26Z" fill="url(#paint2_linear_2803_3883)"/>
<defs>
<linearGradient id="paint0_linear_2803_3883" x1="2.85593" y1="80.2603" x2="300.8" y2="80.2603" gradientUnits="userSpaceOnUse">
<stop stop-color="#8D7129" stop-opacity="0"/>
<stop offset="0.1125" stop-color="#E7C673"/>
<stop offset="0.417697" stop-color="#DDD2AC"/>
<stop offset="0.867708" stop-color="#8D7129"/>
<stop offset="1" stop-color="#E7C673" stop-opacity="0"/>
</linearGradient>
<linearGradient id="paint1_linear_2803_3883" x1="174.783" y1="27.4507" x2="300.409" y2="27.4507" gradientUnits="userSpaceOnUse">
<stop stop-color="#8D7129" stop-opacity="0"/>
<stop offset="0.1125" stop-color="#E7C673"/>
<stop offset="0.417697" stop-color="#DDD2AC"/>
<stop offset="0.867708" stop-color="#8D7129"/>
<stop offset="1" stop-color="#E7C673" stop-opacity="0"/>
</linearGradient>
<linearGradient id="paint2_linear_2803_3883" x1="0.782542" y1="27.4507" x2="126.409" y2="27.4507" gradientUnits="userSpaceOnUse">
<stop stop-color="#8D7129" stop-opacity="0"/>
<stop offset="0.1125" stop-color="#E7C673"/>
<stop offset="0.417697" stop-color="#DDD2AC"/>
<stop offset="0.867708" stop-color="#8D7129"/>
<stop offset="1" stop-color="#E7C673" stop-opacity="0"/>
</linearGradient>
<clipPath id="clip0_2803_3883">
<rect width="272" height="23.2499" fill="white" transform="translate(14 42.8547)"/>
</clipPath>
<clipPath id="clip1_2803_3883">
<rect width="272" height="23.2499" fill="white" transform="translate(14 42.8547)"/>
</clipPath>
<clipPath id="clip2_2803_3883">
<rect width="272" height="23.2499" fill="white" transform="translate(14 42.8547)"/>
</clipPath>
<clipPath id="clip3_2803_3883">
<rect width="272" height="23.2499" fill="white" transform="translate(14 42.8547)"/>
</clipPath>
<clipPath id="clip4_2803_3883">
<rect width="41.411" height="32" fill="white" transform="translate(129)"/>
</clipPath>
<clipPath id="clip5_2803_3883">
<rect width="30.4527" height="32" fill="white" transform="translate(134.479)"/>
</clipPath>
</defs>
</svg>
