<svg width="120" height="120" viewBox="0 0 120 120" fill="none" xmlns="http://www.w3.org/2000/svg">
<circle cx="60" cy="60" r="60" fill="#202020"/>
<path fill-rule="evenodd" clip-rule="evenodd" d="M78.1377 85.1314C77.9135 86.416 78.1487 87.3111 78.6583 87.1498C79.1664 86.988 79.7663 85.8323 80.0037 84.5499C80.2443 83.2486 80.0212 82.3077 79.5 82.4668C78.9772 82.6269 78.3652 83.8278 78.1377 85.1314Z" fill="#D5D5D5"/>
<path fill-rule="evenodd" clip-rule="evenodd" d="M76.2495 85.7186C76.039 87.0055 76.2889 87.9 76.8035 87.7371C77.3165 87.5735 77.9115 86.4156 78.1357 85.1305C78.3632 83.8269 78.1242 82.8855 77.5976 83.0462C77.0693 83.2075 76.4639 84.4128 76.2495 85.7186Z" fill="#B64741"/>
<path fill-rule="evenodd" clip-rule="evenodd" d="M74.3454 86.3121C74.1485 87.6012 74.4132 88.4974 74.9333 88.3317C75.4517 88.1665 76.0396 87.0052 76.2501 85.719C76.4645 84.4126 76.2108 83.4701 75.6787 83.6325C75.1444 83.7954 74.5461 85.0041 74.3454 86.3121Z" fill="#D5D5D5"/>
<path fill-rule="evenodd" clip-rule="evenodd" d="M72.4184 86.9132C72.2352 88.2039 72.5157 89.0996 73.0418 88.9327C73.5646 88.7664 74.147 87.6012 74.3439 86.3127C74.5446 85.0047 74.2745 84.0611 73.7363 84.2257C73.1971 84.3909 72.6049 85.6024 72.4184 86.9132Z" fill="#B64741"/>
<path fill-rule="evenodd" clip-rule="evenodd" d="M70.4746 87.5179C70.305 88.8109 70.6009 89.7071 71.1319 89.538C71.6618 89.37 72.2371 88.202 72.4203 86.9119C72.6068 85.601 72.3202 84.6574 71.7767 84.8237C71.2309 84.99 70.6457 86.2054 70.4746 87.5179Z" fill="#D5D5D5"/>
<path fill-rule="evenodd" clip-rule="evenodd" d="M68.5052 88.131C68.351 89.4256 68.6633 90.3224 69.2003 90.1516C69.7351 89.9814 70.3033 88.8107 70.4728 87.5177C70.644 86.2052 70.3416 85.261 69.7914 85.4284C69.2408 85.5969 68.6627 86.8157 68.5052 88.131Z" fill="#B64741"/>
<path fill-rule="evenodd" clip-rule="evenodd" d="M66.5174 88.7519C66.378 90.0493 66.7061 90.9461 67.2481 90.7731C67.7895 90.6012 68.3511 89.4271 68.5053 88.133C68.6628 86.8177 68.3429 85.8735 67.7867 86.0432C67.23 86.2128 66.6602 87.4349 66.5174 88.7519Z" fill="#D5D5D5"/>
<path fill-rule="evenodd" clip-rule="evenodd" d="M46.5983 86.9088C46.7875 88.4685 46.332 89.6024 45.5893 89.4925C44.8472 89.3825 44.0592 88.0672 43.8213 86.5042C43.5741 84.8842 44.0083 83.6169 44.8002 83.7296C45.5942 83.8424 46.4031 85.291 46.5983 86.9088Z" fill="#FEFEFE"/>
<path fill-rule="evenodd" clip-rule="evenodd" d="M49.3933 87.3157C49.5322 88.8732 49.0345 90.0038 48.2875 89.8927C47.541 89.7817 46.788 88.4686 46.5993 86.9089C46.4035 85.2912 46.8848 84.0261 47.681 84.1399C48.48 84.2538 49.2489 85.7002 49.3933 87.3157Z" fill="#D25B55"/>
<path fill-rule="evenodd" clip-rule="evenodd" d="M52.2036 87.7254C52.2917 89.2795 51.7508 90.4084 50.9994 90.2963C50.2486 90.1847 49.5316 88.8738 49.3927 87.3164C49.2489 85.7008 49.7772 84.4397 50.5789 84.5541C51.3817 84.6679 52.1118 86.1132 52.2036 87.7254Z" fill="#FEFEFE"/>
<path fill-rule="evenodd" clip-rule="evenodd" d="M55.0298 88.1371C55.0675 89.6879 54.4829 90.814 53.7266 90.7018C52.9719 90.5897 52.291 89.2794 52.203 87.7253C52.1111 86.1131 52.687 84.8547 53.4936 84.9691C54.3013 85.0847 54.9909 86.5277 55.0298 88.1371Z" fill="#D25B55"/>
<path fill-rule="evenodd" clip-rule="evenodd" d="M57.8718 88.5499C57.8581 90.0979 57.2298 91.2201 56.4696 91.1073C55.71 90.9946 55.0658 89.6866 55.0281 88.1352C54.9893 86.5259 55.6138 85.2703 56.4253 85.3864C57.2385 85.5019 57.886 86.9438 57.8718 88.5499Z" fill="#FEFEFE"/>
<path fill-rule="evenodd" clip-rule="evenodd" d="M60.733 88.968C60.6663 90.5132 59.9942 91.6326 59.2291 91.5188C58.4657 91.4055 57.8581 90.0997 57.8723 88.5517C57.8865 86.9451 58.5603 85.6912 59.3773 85.8084C60.1954 85.925 60.8019 87.3642 60.733 88.968Z" fill="#D25B55"/>
<path fill-rule="evenodd" clip-rule="evenodd" d="M63.612 89.3854C63.4928 90.9278 62.7747 92.0439 62.0053 91.9295C61.2375 91.8157 60.6671 90.5115 60.7338 88.9663C60.8027 87.3625 61.5257 86.1131 62.3476 86.2303C63.1707 86.3475 63.7356 87.785 63.612 89.3854Z" fill="#FEFEFE"/>
<path fill-rule="evenodd" clip-rule="evenodd" d="M66.5075 89.8074C66.3353 91.3459 65.5713 92.4592 64.7975 92.3442C64.0248 92.2298 63.4932 90.9279 63.6124 89.3855C63.736 87.785 64.5087 86.5384 65.3361 86.6561C66.1646 86.7739 66.6869 88.2103 66.5075 89.8074Z" fill="#D25B55"/>
<mask id="mask0_2963_2394" style="mask-type:alpha" maskUnits="userSpaceOnUse" x="79" y="62" width="21" height="22">
<path fill-rule="evenodd" clip-rule="evenodd" d="M79.1338 62.4893H99.8093V83.844H79.1338V62.4893Z" fill="white"/>
</mask>
<g mask="url(#mask0_2963_2394)">
<path fill-rule="evenodd" clip-rule="evenodd" d="M82.1721 70.104C81.4705 70.5867 80.8432 71.2083 80.3368 71.9645C78.1893 75.1693 78.9943 79.5432 82.1349 81.734C84.1512 83.1408 86.639 83.3038 88.7313 82.3936C88.8292 82.4701 88.9292 82.5448 89.0326 82.6168C92.1727 84.8077 96.4596 83.9862 98.6067 80.7814C100.754 77.5772 99.9487 73.2028 96.8085 71.0119C96.5028 70.7987 96.1862 70.6151 95.8625 70.4583C96.1971 67.9098 95.1461 65.2669 92.9241 63.7167C89.7835 61.5253 85.4971 62.3473 83.3495 65.5515C82.4193 66.9405 82.0442 68.5487 82.1721 70.104Z" fill="#FBFDFD"/>
</g>
<path fill-rule="evenodd" clip-rule="evenodd" d="M92.448 73.9214C92.7023 73.7395 93.0977 73.8684 93.3323 74.2093C93.5664 74.5503 93.55 74.9738 93.2957 75.1558C93.0414 75.3377 92.646 75.2088 92.4119 74.8678C92.1773 74.5269 92.1937 74.1033 92.448 73.9214Z" fill="#C5B132"/>
<path fill-rule="evenodd" clip-rule="evenodd" d="M81.4039 77.0664C80.6285 76.721 79.7775 76.5151 78.8807 76.485C75.0783 76.3566 71.8933 79.3974 71.7675 83.2768C71.6866 85.7684 72.8875 87.9978 74.7627 89.3103C74.7523 89.4359 74.7447 89.562 74.7403 89.6892C74.6145 93.5692 77.595 96.8187 81.3968 96.947C85.1992 97.0759 88.3836 94.0352 88.51 90.1552C88.522 89.7779 88.504 89.4068 88.4597 89.043C90.7461 87.9632 92.3676 85.6401 92.4567 82.8946C92.5825 79.0151 89.6026 75.7657 85.8002 75.6367C84.1525 75.5809 82.6213 76.1217 81.4039 77.0664Z" fill="#FBFDFD"/>
<path fill-rule="evenodd" clip-rule="evenodd" d="M79.4898 85.5611C79.8814 85.7268 80.0258 86.2865 79.8125 86.8122C79.5992 87.3373 79.1087 87.6286 78.7171 87.4629C78.3255 87.2971 78.1812 86.7374 78.3944 86.2123C78.6077 85.6872 79.0983 85.3954 79.4898 85.5611Z" fill="#C5B132"/>
<path fill-rule="evenodd" clip-rule="evenodd" d="M81.552 56.8996C80.8504 57.3823 80.2231 58.004 79.7167 58.7601C77.5691 61.9649 78.3741 66.3393 81.5148 68.5302C83.5311 69.937 86.0188 70.0999 88.1112 69.1892C88.209 69.2657 88.3091 69.3405 88.4125 69.4124C91.5526 71.6039 95.8395 70.7819 97.9865 67.5771C100.134 64.3728 99.3285 59.9989 96.1884 57.8075C95.8827 57.5949 95.5661 57.4108 95.2423 57.254C95.577 54.7054 94.5259 52.0631 92.304 50.5123C89.1633 48.3215 84.877 49.1429 82.7294 52.3477C81.7992 53.7361 81.424 55.3444 81.552 56.8996Z" fill="#FBFDFD"/>
<path fill-rule="evenodd" clip-rule="evenodd" d="M91.6201 60.5693C91.9154 60.3583 92.3747 60.5079 92.6465 60.9041C92.9183 61.2997 92.8992 61.7914 92.6044 62.0029C92.3091 62.2138 91.8498 62.0637 91.578 61.668C91.3062 61.2724 91.3248 60.7802 91.6201 60.5693Z" fill="#C5B132"/>
<path fill-rule="evenodd" clip-rule="evenodd" d="M71.7716 34.8657C71.0699 35.3478 70.4427 35.9701 69.9363 36.7262C67.7887 39.931 68.5943 44.3049 71.7344 46.4957C73.7513 47.9025 76.239 48.0655 78.3307 47.1553C78.4286 47.2318 78.5287 47.306 78.6321 47.3785C81.7727 49.5694 86.0591 48.7474 88.2067 45.5432C90.3537 42.3389 89.5487 37.9645 86.408 35.7736C86.1029 35.5605 85.7862 35.3769 85.4619 35.2201C85.7966 32.6715 84.7455 30.0287 82.5236 28.4784C79.3829 26.287 75.0966 27.109 72.9495 30.3132C72.0193 31.7022 71.6436 33.3105 71.7716 34.8657Z" fill="#FBFDFD"/>
<path fill-rule="evenodd" clip-rule="evenodd" d="M77.7951 33.4402C78.2917 33.0853 79.0644 33.337 79.5216 34.0027C79.9788 34.6685 79.9471 35.496 79.4505 35.8509C78.9545 36.2059 78.1818 35.9536 77.7246 35.2884C77.2674 34.6227 77.2991 33.7951 77.7951 33.4402Z" fill="#C5B132"/>
<path fill-rule="evenodd" clip-rule="evenodd" d="M69.0872 45.1157C68.3855 45.5978 67.7583 46.2201 67.2519 46.9762C65.1043 50.181 65.9093 54.5549 69.05 56.7457C71.0663 58.1525 73.5546 58.3155 75.6463 57.4053C75.7442 57.4818 75.8443 57.5566 75.9477 57.6285C79.0883 59.8194 83.3747 58.998 85.5217 55.7932C87.6693 52.5889 86.8637 48.2145 83.7236 46.0236C83.4179 45.8105 83.1013 45.6269 82.7775 45.4701C83.1122 42.9215 82.0611 40.2786 79.8392 38.7284C76.6985 36.537 72.4121 37.359 70.2646 40.5632C69.3343 41.9522 68.9592 43.5605 69.0872 45.1157Z" fill="#FBFDFD"/>
<path fill-rule="evenodd" clip-rule="evenodd" d="M73.4809 44.8596C74.8787 43.8596 77.0564 44.5694 78.3437 46.4444C79.6316 48.3188 79.5419 50.6492 78.1436 51.6492C76.7458 52.6486 74.5687 51.9394 73.2813 50.0644C71.9935 48.1894 72.0831 45.859 73.4809 44.8596Z" fill="#C5B132"/>
<path fill-rule="evenodd" clip-rule="evenodd" d="M71.8956 65.9348C71.194 66.4175 70.5667 67.0391 70.0603 67.7953C67.9128 71.0001 68.7183 75.374 71.8584 77.5654C73.8753 78.9722 76.363 79.1351 78.4548 78.2244C78.5527 78.3009 78.6527 78.3757 78.7561 78.4476C81.8968 80.6385 86.1831 79.8171 88.3307 76.6123C90.4777 73.408 89.6727 69.0336 86.532 66.8427C86.2269 66.6296 85.9102 66.446 85.5859 66.2891C85.9206 63.7406 84.8695 61.0977 82.6476 59.5475C79.5069 57.3567 75.2206 58.1781 73.0736 61.3823C72.1428 62.7713 71.7676 64.3795 71.8956 65.9348Z" fill="#FBFDFD"/>
<path fill-rule="evenodd" clip-rule="evenodd" d="M81.9779 69.618C82.2699 69.4093 82.7249 69.5577 82.994 69.9494C83.2636 70.3412 83.2444 70.8278 82.9524 71.037C82.6604 71.2458 82.2054 71.0979 81.9363 70.7061C81.6673 70.3144 81.6859 69.8272 81.9779 69.618Z" fill="#C5B132"/>
<path fill-rule="evenodd" clip-rule="evenodd" d="M78.3713 45.8225C77.6697 46.3052 77.0424 46.9268 76.536 47.683C74.3885 50.8878 75.1935 55.2622 78.3342 57.453C80.3505 58.8598 82.8387 59.0228 84.9305 58.1121C85.0284 58.1885 85.1285 58.2633 85.2318 58.3353C88.3725 60.5267 92.6589 59.7047 94.8059 56.4999C96.9535 53.2957 96.1479 48.9218 93.0078 46.7304C92.7026 46.5178 92.386 46.3342 92.0617 46.1768C92.3964 43.6283 91.3453 40.986 89.1234 39.4352C85.9827 37.2443 81.6963 38.0658 79.5488 41.2706C78.6185 42.659 78.2434 44.2672 78.3713 45.8225Z" fill="#FBFDFD"/>
<path fill-rule="evenodd" clip-rule="evenodd" d="M87.975 49.1729C88.36 48.8972 88.9599 49.0925 89.3143 49.6093C89.6692 50.126 89.6446 50.7678 89.2596 51.0434C88.8746 51.3186 88.2747 51.1232 87.9198 50.6065C87.5649 50.0903 87.5895 49.448 87.975 49.1729Z" fill="#C5B132"/>
<path fill-rule="evenodd" clip-rule="evenodd" d="M63.1028 54.1177C62.4011 54.6004 61.7739 55.222 61.2675 55.9781C59.1199 59.183 59.9249 63.5568 63.0656 65.7477C65.0819 67.1545 67.5696 67.3174 69.6619 66.4073C69.7598 66.4837 69.8599 66.5585 69.9627 66.6305C73.1034 68.8213 77.3903 67.9999 79.5373 64.7951C81.6849 61.5909 80.8793 57.2164 77.7392 55.0256C77.4335 54.8124 77.1169 54.6288 76.7931 54.472C77.1278 51.9235 76.0767 49.2806 73.8548 47.7304C70.7141 45.539 66.4278 46.361 64.2802 49.5652C63.35 50.9542 62.9748 52.5624 63.1028 54.1177Z" fill="#FBFDFD"/>
<path fill-rule="evenodd" clip-rule="evenodd" d="M67.4959 53.8605C68.8937 52.8605 71.0707 53.5704 72.3586 55.4454C73.646 57.3204 73.5568 59.6502 72.1585 60.6502C70.7607 61.6496 68.5836 60.9403 67.2957 59.0653C66.0084 57.1909 66.0975 54.86 67.4959 53.8605Z" fill="#C5B132"/>
<path fill-rule="evenodd" clip-rule="evenodd" d="M63.7426 36.6737C63.0579 36.1665 62.2704 35.7786 61.4003 35.5526C57.7139 34.5934 53.9634 36.8657 53.0233 40.6274C52.4201 43.0426 53.124 45.4834 54.6793 47.1765C54.6421 47.2965 54.6082 47.4182 54.577 47.5415C53.6375 51.3032 55.8638 55.1302 59.5502 56.0889C63.2367 57.0482 66.9871 54.7759 67.9272 51.0141C68.0185 50.6486 68.0787 50.2825 68.1121 49.9176C70.573 49.364 72.6451 47.4505 73.3101 44.7887C74.2501 41.027 72.0233 37.2 68.3368 36.2413C66.7394 35.8255 65.1305 36.0175 63.7426 36.6737Z" fill="#FBFDFD"/>
<path fill-rule="evenodd" clip-rule="evenodd" d="M65.4838 40.7943C66.8838 41.7915 66.9773 44.1218 65.6927 45.9991C64.4086 47.8763 62.2326 48.5895 60.8332 47.5928C59.4332 46.5956 59.3397 44.2652 60.6237 42.388C61.9078 40.5108 64.0838 39.797 65.4838 40.7943Z" fill="#C5B132"/>
<path fill-rule="evenodd" clip-rule="evenodd" d="M60.1266 28.508C59.3516 28.8557 58.6265 29.3529 57.996 30.0052C55.3234 32.7681 55.3524 37.219 58.0599 39.9455C59.7984 41.6967 62.2183 42.3088 64.4353 41.7938C64.5185 41.8864 64.6043 41.9785 64.6929 42.0678C67.4005 44.7949 71.7623 44.7653 74.4349 42.0025C77.1069 39.2396 77.0784 34.7887 74.3703 32.0622C74.1067 31.7971 73.8278 31.5588 73.5363 31.3451C74.3102 28.8987 73.7376 26.1068 71.8214 24.1771C69.1138 21.4506 64.7525 21.4801 62.08 24.243C60.9223 25.44 60.272 26.9545 60.1266 28.508Z" fill="#FBFDFD"/>
<path fill-rule="evenodd" clip-rule="evenodd" d="M66.7396 27.9973C67.0491 27.8517 67.4522 28.0699 67.6397 28.4856C67.8279 28.9008 67.7289 29.355 67.4193 29.5007C67.1098 29.6469 66.7067 29.4281 66.5192 29.0129C66.331 28.5978 66.43 28.143 66.7396 27.9973Z" fill="#C5B132"/>
<path fill-rule="evenodd" clip-rule="evenodd" d="M42.6565 46.4507C41.9549 46.9328 41.3276 47.555 40.8212 48.3112C38.6736 51.516 39.4786 55.8898 42.6193 58.0807C44.6356 59.4875 47.1239 59.6504 49.2157 58.7403C49.3135 58.8167 49.4136 58.891 49.517 58.9635C52.6576 61.1544 56.944 60.3329 59.091 57.1281C61.2386 53.9239 60.433 49.5494 57.2929 47.3586C56.9878 47.1454 56.6711 46.9618 56.3468 46.805C56.6815 44.2565 55.6304 41.6136 53.4085 40.0634C50.2678 37.872 45.9815 38.694 43.8339 41.8982C42.9037 43.2872 42.5285 44.8954 42.6565 46.4507Z" fill="#FBFDFD"/>
<path fill-rule="evenodd" clip-rule="evenodd" d="M47.0503 46.1943C48.4486 45.1948 50.6257 45.9041 51.913 47.7791C53.2009 49.6541 53.1112 51.9845 51.7129 52.9839C50.3151 53.9833 48.138 53.2741 46.8507 51.3996C45.5628 49.5246 45.6525 47.1943 47.0503 46.1943Z" fill="#C5B132"/>
<path fill-rule="evenodd" clip-rule="evenodd" d="M56.3661 39.3273C57.1196 38.935 57.8158 38.3953 58.4086 37.7073C60.9198 34.791 60.6387 30.3496 57.7813 27.7871C55.9466 26.1414 53.4961 25.6727 51.3119 26.3183C51.2233 26.2302 51.1331 26.1437 51.039 26.06C48.1816 23.4969 43.8291 23.7837 41.3173 26.7C38.8066 29.6158 39.0872 34.0572 41.9445 36.6197C42.2229 36.8686 42.5149 37.0901 42.8184 37.286C42.1841 39.7742 42.9141 42.5276 44.9359 44.3407C47.7939 46.9032 52.1464 46.6169 54.6571 43.7006C55.7454 42.4372 56.3092 40.887 56.3661 39.3273Z" fill="#FBFDFD"/>
<path fill-rule="evenodd" clip-rule="evenodd" d="M46.8642 34.4903C46.5333 34.6706 46.0778 34.4568 45.8454 34.0132C45.6135 33.5695 45.6939 33.064 46.0247 32.8843C46.3551 32.704 46.8111 32.9178 47.043 33.3614C47.2749 33.805 47.1945 34.3106 46.8642 34.4903Z" fill="#C5B132"/>
<path fill-rule="evenodd" clip-rule="evenodd" d="M66.3738 52.7638C67.1274 52.3715 67.8236 51.8319 68.4164 51.1438C70.9276 48.2275 70.6465 43.7861 67.7891 41.2236C65.9544 39.5785 63.5039 39.1092 61.3197 39.7548C61.2311 39.6667 61.1409 39.5802 61.0468 39.4965C58.1894 36.9334 53.8369 37.2202 51.3251 40.1365C48.8144 43.0523 49.095 47.4937 51.9524 50.0562C52.2307 50.3056 52.5227 50.5266 52.8263 50.7225C52.1919 53.2108 52.922 55.9641 54.9437 57.7772C57.8017 60.3397 62.1542 60.0528 64.6649 57.1371C65.7531 55.8737 66.317 54.3235 66.3738 52.7638Z" fill="#FBFDFD"/>
<path fill-rule="evenodd" clip-rule="evenodd" d="M61.9841 52.4751C60.4781 53.2949 58.4005 52.3222 57.345 50.3016C56.289 48.2821 56.6538 45.9796 58.1604 45.1599C59.6665 44.3401 61.7435 45.3133 62.7995 47.3334C63.855 49.3529 63.4902 51.6554 61.9841 52.4751Z" fill="#C5B132"/>
<path fill-rule="evenodd" clip-rule="evenodd" d="M54.1838 55.9465C54.9374 55.5542 55.6336 55.0146 56.2264 54.3259C58.7376 51.4102 58.4565 46.9688 55.5991 44.4063C53.7644 42.7607 51.3139 42.2919 49.1291 42.9376C49.0411 42.8494 48.9508 42.7629 48.8568 42.6786C45.9994 40.1161 41.6463 40.403 39.1351 43.3193C36.6239 46.235 36.9044 50.6764 39.7623 53.2389C40.0401 53.4878 40.3327 53.7093 40.6362 53.9052C40.0019 56.3935 40.7319 59.1468 42.7537 60.9599C45.6111 63.5224 49.9636 63.2355 52.4749 60.3198C53.5631 59.0564 54.1264 57.5056 54.1838 55.9465Z" fill="#FBFDFD"/>
<path fill-rule="evenodd" clip-rule="evenodd" d="M49.7927 55.6578C48.2866 56.4775 46.2096 55.5043 45.1536 53.4842C44.0976 51.4647 44.4624 49.1622 45.969 48.3425C47.4751 47.5227 49.5521 48.4959 50.6081 50.5155C51.6641 52.5356 51.2988 54.838 49.7927 55.6578Z" fill="#C5B132"/>
<path fill-rule="evenodd" clip-rule="evenodd" d="M68.9002 72.1066C69.6538 71.7143 70.35 71.1746 70.9428 70.4866C73.454 67.5703 73.1729 63.1289 70.3155 60.5664C68.4808 58.9213 66.0303 58.452 63.8461 59.0976C63.758 59.0095 63.6672 58.923 63.5732 58.8393C60.7158 56.2762 56.3632 56.563 53.8515 59.4793C51.3408 62.3951 51.6213 66.8365 54.4787 69.399C54.7571 69.6484 55.0491 69.8694 55.3526 70.0653C54.7183 72.5535 55.4483 75.3069 57.4701 77.1199C60.3281 79.6824 64.6806 79.3962 67.1918 76.4799C68.2801 75.2165 68.8434 73.6663 68.9002 72.1066Z" fill="#FBFDFD"/>
<path fill-rule="evenodd" clip-rule="evenodd" d="M64.5095 71.8208C63.0035 72.6406 60.9264 71.6679 59.8704 69.6473C58.8144 67.6278 59.1792 65.3253 60.6858 64.5056C62.1919 63.6858 64.2689 64.659 65.3249 66.6791C66.3804 68.6986 66.0156 71.0011 64.5095 71.8208Z" fill="#C5B132"/>
<path fill-rule="evenodd" clip-rule="evenodd" d="M49.6778 43.3887C47.4193 42.795 45.0163 42.6125 42.5609 42.93C32.1578 44.2743 24.7925 53.9702 26.1094 64.5851C26.9554 71.4015 31.1778 76.9339 36.8439 79.67C36.8685 80.0159 36.9008 80.3636 36.944 80.7118C38.2619 91.3273 47.7633 98.843 58.1658 97.4986C68.5689 96.1549 75.9347 86.4596 74.6173 75.8441C74.4888 74.8117 74.2815 73.81 74.0048 72.8407C79.7666 68.8831 83.184 61.8374 82.2521 54.3262C80.9347 43.7112 71.4334 36.1951 61.0303 37.5394C56.5225 38.122 52.5861 40.2743 49.6778 43.3887Z" fill="#FBFDFD"/>
<path fill-rule="evenodd" clip-rule="evenodd" d="M64.5865 87.3257C63.8761 87.8139 63.2412 88.4434 62.7277 89.2096C60.5533 92.4546 61.3687 96.8837 64.5488 99.1025C66.5908 100.527 69.1096 100.692 71.2282 99.7704C71.3277 99.8474 71.4289 99.9233 71.5334 99.9964C74.7134 102.215 79.0539 101.383 81.2283 98.1376C83.4026 94.8932 82.5872 90.4635 79.4072 88.2448C79.0982 88.0293 78.7777 87.8435 78.4491 87.6845C78.7881 85.1041 77.7239 82.4278 75.4741 80.858C72.2941 78.6393 67.9536 79.4713 65.7792 82.7163C64.837 84.122 64.4569 85.7509 64.5865 87.3257Z" fill="#FBFDFD"/>
<path fill-rule="evenodd" clip-rule="evenodd" d="M70.5247 89.239C71.0453 88.8668 71.8563 89.1313 72.3359 89.8294C72.8155 90.5275 72.7822 91.3958 72.2615 91.768C71.7409 92.1402 70.9299 91.8762 70.4503 91.1776C69.9707 90.4795 70.0041 89.6112 70.5247 89.239Z" fill="#C5B132"/>
<path fill-rule="evenodd" clip-rule="evenodd" d="M51.3792 76.8003C50.6775 77.283 50.0503 77.9046 49.5439 78.6608C47.3963 81.8656 48.2013 86.2395 51.342 88.4303C53.3583 89.8371 55.8465 90.0001 57.9383 89.0899C58.0362 89.1664 58.1363 89.2411 58.2396 89.3131C61.3803 91.504 65.6667 90.6825 67.8137 87.4777C69.9612 84.2735 69.1557 79.899 66.0156 77.7082C65.7104 77.495 65.3938 77.3114 65.0695 77.1546C65.4042 74.6061 64.3531 71.9632 62.1312 70.413C58.9905 68.2216 54.7041 69.0436 52.5566 72.2478C51.6263 73.6368 51.2512 75.245 51.3792 76.8003Z" fill="#FBFDFD"/>
<path fill-rule="evenodd" clip-rule="evenodd" d="M55.77 76.5441C57.1684 75.5441 59.3455 76.254 60.6328 78.129C61.9207 80.004 61.831 82.3338 60.4326 83.3338C59.0348 84.3332 56.8577 83.6239 55.5704 81.7489C54.2825 79.8745 54.3722 77.5436 55.77 76.5441Z" fill="#C5B132"/>
<path fill-rule="evenodd" clip-rule="evenodd" d="M61.6241 73.1147C60.9225 73.5969 60.2952 74.2191 59.7888 74.9752C57.6413 78.18 58.4468 82.5539 61.5869 84.7448C63.6032 86.1516 66.0915 86.3145 68.1833 85.4044C68.2812 85.4808 68.3812 85.555 68.4846 85.6276C71.6253 87.8184 75.9116 86.9964 78.0587 83.7922C80.2062 80.5879 79.4012 76.2135 76.2606 74.0227C75.9554 73.8095 75.6388 73.6259 75.3145 73.4691C75.6492 70.9205 74.5981 68.2777 72.3761 66.7274C69.2355 64.536 64.9491 65.358 62.8015 68.5623C61.8713 69.9512 61.4962 71.5595 61.6241 73.1147Z" fill="#FBFDFD"/>
<path fill-rule="evenodd" clip-rule="evenodd" d="M67.3164 74.7465C67.9355 74.304 68.8991 74.6181 69.4695 75.4479C70.0393 76.2783 69.9994 77.3095 69.3803 77.7521C68.7618 78.1946 67.7982 77.8804 67.2278 77.0506C66.658 76.2208 66.6979 75.189 67.3164 74.7465Z" fill="#C5B132"/>
<path fill-rule="evenodd" clip-rule="evenodd" d="M44.3293 56.7775C43.6277 57.2602 43.0005 57.8819 42.4941 58.638C40.3465 61.8428 41.1515 66.2173 44.2922 68.4081C46.3085 69.8149 48.7962 69.9779 50.8885 69.0672C50.9864 69.1436 51.0865 69.2184 51.1898 69.2904C54.33 71.4812 58.6169 70.6598 60.7639 67.455C62.9114 64.2508 62.1059 59.8769 58.9658 57.6855C58.6601 57.4729 58.3434 57.2887 58.0197 57.1319C58.3544 54.5833 57.3033 51.941 55.0814 50.3903C51.9407 48.1994 47.6543 49.0208 45.5068 52.2256C44.5765 53.614 44.2014 55.2223 44.3293 56.7775Z" fill="#FBFDFD"/>
<path fill-rule="evenodd" clip-rule="evenodd" d="M48.7185 56.5217C50.1163 55.5217 52.294 56.2315 53.5813 58.1065C54.8692 59.9815 54.7795 62.3113 53.3811 63.3113C51.9833 64.3107 49.8063 63.6015 48.5184 61.7265C47.231 59.852 47.3202 57.5217 48.7185 56.5217Z" fill="#C5B132"/>
<path fill-rule="evenodd" clip-rule="evenodd" d="M42.2694 53.1661C43.023 52.7738 43.7191 52.2342 44.312 51.5456C46.8232 48.6298 46.5421 44.1884 43.6847 41.6259C41.8499 39.9803 39.3994 39.5115 37.2152 40.1572C37.1266 40.069 37.0364 39.9825 36.9423 39.8988C34.0849 37.3358 29.7324 37.6226 27.2206 40.5389C24.7099 43.4546 24.9905 47.896 27.8479 50.4585C28.1262 50.7074 28.4183 50.929 28.7218 51.1248C28.0874 53.6131 28.8175 56.3665 30.8393 58.1795C33.6972 60.742 38.0497 60.4552 40.5604 57.5394C41.6487 56.2761 42.2125 54.7258 42.2694 53.1661Z" fill="#FBFDFD"/>
<path fill-rule="evenodd" clip-rule="evenodd" d="M37.8797 52.8785C36.3736 53.6982 34.296 52.7256 33.2405 50.7049C32.1845 48.6854 32.5493 46.3829 34.0559 45.5632C35.562 44.7434 37.639 45.7166 38.695 47.7367C39.7505 49.7563 39.3857 52.0587 37.8797 52.8785Z" fill="#C5B132"/>
<path fill-rule="evenodd" clip-rule="evenodd" d="M40.8752 47.2863C41.6649 46.9766 42.413 46.5145 43.0731 45.8929C45.8692 43.2612 46.0459 38.8142 43.4668 35.9604C41.8109 34.1283 39.4222 33.4001 37.1833 33.8092C37.1046 33.7121 37.0236 33.6161 36.9389 33.5223C34.3593 30.6691 30.0018 30.4888 27.2046 33.1205C24.4084 35.7522 24.2318 40.1992 26.8108 43.053C27.0618 43.3304 27.3298 43.582 27.6114 43.8092C26.7255 46.216 27.169 49.0318 28.9934 51.0513C31.5724 53.9046 35.9304 54.0848 38.7271 51.4531C39.9395 50.3125 40.6587 48.8315 40.8752 47.2863Z" fill="#FBFDFD"/>
<path fill-rule="evenodd" clip-rule="evenodd" d="M32.0405 41.5915C31.6616 41.7483 31.1907 41.4631 30.9889 40.9548C30.7871 40.447 30.9304 39.9073 31.3094 39.7511C31.6884 39.5943 32.1592 39.8789 32.361 40.3873C32.5633 40.8956 32.4195 41.4347 32.0405 41.5915Z" fill="#C5B132"/>
<path fill-rule="evenodd" clip-rule="evenodd" d="M36.6737 61.8762C37.4273 61.4839 38.1234 60.9443 38.7162 60.2557C41.2275 57.34 40.9464 52.8985 38.089 50.3355C36.2542 48.6904 33.8037 48.2216 31.6195 48.8673C31.5309 48.7791 31.4407 48.6926 31.3466 48.6084C28.4892 46.0459 24.1367 46.3327 21.6249 49.2484C19.1142 52.1647 19.3948 56.6061 22.2522 59.1686C22.5305 59.4175 22.8226 59.6391 23.1261 59.8349C22.4917 62.3232 23.2218 65.076 25.2435 66.8896C28.1015 69.4521 32.4535 69.1659 34.9647 66.2496C36.053 64.9862 36.6163 63.4354 36.6737 61.8762Z" fill="#FBFDFD"/>
<path fill-rule="evenodd" clip-rule="evenodd" d="M32.283 61.5904C30.7769 62.4101 28.6993 61.4369 27.6439 59.4168C26.5879 57.3967 26.9526 55.0949 28.4593 54.2751C29.9653 53.4553 32.0424 54.4286 33.0984 56.4481C34.1538 58.4682 33.7891 60.7706 32.283 61.5904Z" fill="#C5B132"/>
<mask id="mask1_2963_2394" style="mask-type:alpha" maskUnits="userSpaceOnUse" x="19" y="62" width="21" height="23">
<path fill-rule="evenodd" clip-rule="evenodd" d="M19.2002 62.6309H39.2487V84.8636H19.2002V62.6309Z" fill="white"/>
</mask>
<g mask="url(#mask1_2963_2394)">
<path fill-rule="evenodd" clip-rule="evenodd" d="M34.2092 79.4921C35.0246 79.2605 35.8121 78.8726 36.5268 78.3185C39.5559 75.9703 40.1466 71.5607 37.8453 68.4697C36.3677 66.4842 34.0577 65.5278 31.7915 65.7169C31.722 65.6131 31.6498 65.5099 31.5744 65.4083C29.2731 62.3174 24.9518 61.7147 21.9221 64.0629C18.893 66.4111 18.3024 70.8207 20.6036 73.9117C20.8273 74.2125 21.0712 74.4887 21.3298 74.7421C20.2235 77.0523 20.4024 79.8989 22.0304 82.0858C24.3316 85.1773 28.653 85.7794 31.6826 83.4318C32.9951 82.4139 33.8493 81.0088 34.2092 79.4921Z" fill="#FBFDFD"/>
</g>
<path fill-rule="evenodd" clip-rule="evenodd" d="M26.4813 73.6784C25.9229 73.8481 25.2935 73.3788 25.0742 72.6304C24.8554 71.8816 25.1305 71.1371 25.6888 70.9675C26.2472 70.7973 26.8772 71.2666 27.0959 72.0155C27.3147 72.7638 27.0396 73.5082 26.4813 73.6784Z" fill="#C5B132"/>
<path fill-rule="evenodd" clip-rule="evenodd" d="M40.6573 85.2098C41.4109 84.8175 42.107 84.2779 42.6999 83.5899C45.2111 80.6736 44.93 76.2322 42.0726 73.6697C40.2378 72.0246 37.7873 71.5553 35.6031 72.2009C35.5145 72.1127 35.4243 72.0262 35.3302 71.9425C32.4728 69.38 28.1203 69.6663 25.6085 72.5826C23.0973 75.4983 23.3784 79.9398 26.2358 82.5023C26.5141 82.7517 26.8062 82.9727 27.1097 83.1685C26.4753 85.6568 27.2054 88.4102 29.2272 90.2232C32.0846 92.7857 36.4371 92.4995 38.9483 89.5832C40.0366 88.3198 40.5999 86.7696 40.6573 85.2098Z" fill="#FBFDFD"/>
<path fill-rule="evenodd" clip-rule="evenodd" d="M31.503 80.6812C31.0928 80.9044 30.5263 80.6393 30.2386 80.0885C29.951 79.5383 30.0505 78.9111 30.4612 78.6879C30.8714 78.4641 31.4374 78.7291 31.725 79.2799C32.0132 79.8302 31.9131 80.4579 31.503 80.6812Z" fill="#C5B132"/>
<path fill-rule="evenodd" clip-rule="evenodd" d="M62.0372 66.6301C62.7908 66.2378 63.4869 65.6982 64.0797 65.0096C66.591 62.0939 66.3099 57.6525 63.4525 55.0894C61.6177 53.4443 59.1672 52.9756 56.9825 53.6212C56.8944 53.533 56.8042 53.4465 56.7101 53.3623C53.8527 50.7998 49.5002 51.0866 46.9884 54.0023C44.4772 56.9186 44.7583 61.36 47.6157 63.922C47.8935 64.1714 48.1861 64.393 48.4896 64.5888C47.8552 67.0771 48.5853 69.8299 50.607 71.6435C53.4644 74.206 57.817 73.9198 60.3282 71.0035C61.4165 69.7395 61.9797 68.1893 62.0372 66.6301Z" fill="#FBFDFD"/>
<path fill-rule="evenodd" clip-rule="evenodd" d="M57.6482 66.3433C56.1421 67.1631 54.0651 66.1904 53.0091 64.1703C51.9531 62.1502 52.3179 59.8478 53.8245 59.028C55.3306 58.2083 57.4076 59.1815 58.4636 61.2016C59.5196 63.2211 59.1543 65.5236 57.6482 66.3433Z" fill="#C5B132"/>
<path fill-rule="evenodd" clip-rule="evenodd" d="M44.9923 70.2687C45.7458 69.8764 46.442 69.3367 47.0348 68.6481C49.5461 65.7324 49.265 61.291 46.4076 58.7285C44.5728 57.0828 42.1223 56.6141 39.9381 57.2597C39.8495 57.1716 39.7593 57.0856 39.6652 57.0014C36.8078 54.4383 32.4553 54.7251 29.9435 57.6414C27.4323 60.5572 27.7134 64.9986 30.5707 67.5611C30.8486 67.81 31.1411 68.0315 31.4446 68.2274C30.8103 70.7156 31.5403 73.469 33.5621 75.2821C36.4195 77.8446 40.7721 77.5583 43.2833 74.642C44.3716 73.3786 44.9348 71.8278 44.9923 70.2687Z" fill="#FBFDFD"/>
<path fill-rule="evenodd" clip-rule="evenodd" d="M35.4833 65.4261C35.1541 65.6052 34.6996 65.3926 34.4688 64.9507C34.2381 64.5093 34.3179 64.0059 34.6471 63.8262C34.9763 63.6471 35.4308 63.8597 35.6616 64.3017C35.8929 64.7436 35.813 65.247 35.4833 65.4261Z" fill="#C5B132"/>
<path fill-rule="evenodd" clip-rule="evenodd" d="M54.5799 77.8371C55.3335 77.4448 56.0297 76.9052 56.6225 76.2166C59.1337 73.3008 58.8526 68.8594 55.9952 66.2969C54.1605 64.6513 51.7099 64.1825 49.5257 64.8282C49.4377 64.74 49.3469 64.6535 49.2529 64.5692C46.3955 62.0068 42.0429 62.2936 39.5312 65.2099C37.0205 68.1256 37.301 72.567 40.1584 75.1295C40.4368 75.3784 40.7288 75.5999 41.0323 75.7958C40.3979 78.2841 41.128 81.0374 43.1498 82.8505C46.0077 85.413 50.3603 85.1267 52.8715 82.2104C53.9598 80.947 54.523 79.3963 54.5799 77.8371Z" fill="#FBFDFD"/>
<path fill-rule="evenodd" clip-rule="evenodd" d="M45.4383 73.3217C45.0238 73.5471 44.4528 73.2793 44.1624 72.724C43.8715 72.1682 43.9721 71.5349 44.3867 71.3094C44.8006 71.084 45.3721 71.3518 45.6625 71.9071C45.9529 72.4629 45.8523 73.0962 45.4383 73.3217Z" fill="#C5B132"/>
<path fill-rule="evenodd" clip-rule="evenodd" d="M55.1258 92.5742C55.7454 93.1623 56.4815 93.6439 57.3182 93.9765C60.8641 95.3833 64.8557 93.5903 66.2343 89.9726C67.1203 87.6495 66.7112 85.14 65.3675 83.2672C65.4184 83.1528 65.4665 83.0362 65.5119 82.9174C66.8906 79.299 65.134 75.2259 61.5881 73.8186C58.0428 72.4118 54.0506 74.2042 52.672 77.8225C52.538 78.174 52.4341 78.5301 52.3581 78.8883C49.8501 79.1339 47.5658 80.7778 46.5902 83.3381C45.2116 86.9559 46.9681 91.0295 50.514 92.4363C52.0502 93.0463 53.6706 93.0541 55.1258 92.5742Z" fill="#FBFDFD"/>
<path fill-rule="evenodd" clip-rule="evenodd" d="M53.8857 88.2675C52.6142 87.1051 52.7974 84.7803 54.2947 83.0755C55.7921 81.3701 58.0364 80.9304 59.3079 82.0934C60.5793 83.2557 60.3961 85.58 58.8988 87.2853C57.4015 88.9901 55.1566 89.4299 53.8857 88.2675Z" fill="#C5B132"/>
<path fill-rule="evenodd" clip-rule="evenodd" d="M65.0936 95.1454C65.8472 94.7531 66.5433 94.2135 67.1362 93.5254C69.6474 90.6091 69.3663 86.1677 66.5089 83.6052C64.6741 81.9601 62.2236 81.4908 60.0394 82.1365C59.9514 82.0483 59.8606 81.9618 59.7665 81.8781C56.9091 79.3156 52.5566 79.6019 50.0448 82.5182C47.5341 85.4339 47.8147 89.8753 50.6721 92.4378C50.9504 92.6872 51.2425 92.9082 51.546 93.1041C50.9116 95.5924 51.6417 98.3457 53.6635 100.159C56.5214 102.721 60.8739 102.435 63.3852 99.5187C64.4734 98.2553 65.0367 96.7051 65.0936 95.1454Z" fill="#FBFDFD"/>
<path fill-rule="evenodd" clip-rule="evenodd" d="M59.5218 92.601C58.9449 92.9147 58.1498 92.5424 57.7456 91.769C57.3415 90.9956 57.4815 90.1139 58.0579 89.7997C58.6343 89.4861 59.43 89.8583 59.8341 90.6323C60.2382 91.4052 60.0988 92.2874 59.5218 92.601Z" fill="#C5B132"/>
<path fill-rule="evenodd" clip-rule="evenodd" d="M52.1778 92.0876C52.8751 91.5993 53.4974 90.9715 53.9978 90.2109C56.118 86.9877 55.2764 82.6211 52.1176 80.4576C50.0893 79.0681 47.5999 78.9269 45.5158 79.8555C45.4174 79.7796 45.3168 79.7059 45.2129 79.635C42.0541 77.4715 37.7749 78.3303 35.6541 81.5536C33.5339 84.7762 34.3755 89.1434 37.5343 91.3075C37.8416 91.5178 38.1593 91.6986 38.4847 91.8527C38.1719 94.4034 39.2449 97.0374 41.4799 98.5681C44.6381 100.732 48.9179 99.8728 51.0381 96.6495C51.9569 95.2528 52.3189 93.6417 52.1778 92.0876Z" fill="#FBFDFD"/>
<path fill-rule="evenodd" clip-rule="evenodd" d="M42.525 88.8068C42.146 89.083 41.5505 88.8944 41.195 88.386C40.8395 87.8777 40.8587 87.2421 41.2377 86.9658C41.6166 86.6902 42.2122 86.8782 42.5677 87.3866C42.9231 87.895 42.904 88.5306 42.525 88.8068Z" fill="#C5B132"/>
<path fill-rule="evenodd" clip-rule="evenodd" d="M57.6632 71.4918L56.6148 71.4511C55.2509 71.3981 54.1774 70.2162 54.2293 68.8244L54.5077 61.3534C54.5597 59.9617 55.7179 58.8663 57.0818 58.9199L58.1302 58.96C59.4941 59.013 60.5676 60.195 60.5151 61.5867L60.2373 69.0577C60.1848 70.4494 59.0271 71.5449 57.6632 71.4918Z" fill="#FBFDFD"/>
<path fill-rule="evenodd" clip-rule="evenodd" d="M61.5952 57.6321C61.4744 56.7777 61.1987 55.9312 60.7519 55.1365C58.8576 51.7699 54.6472 50.607 51.3485 52.5394C49.2299 53.7805 48.0038 55.9954 47.8972 58.314C47.7873 58.3704 47.6779 58.4301 47.5696 58.4931C44.2704 60.4262 43.1307 64.7225 45.025 68.0891C46.9189 71.4557 51.1287 72.6181 54.4285 70.6857C54.7489 70.4982 55.0486 70.2872 55.3281 70.0573C57.4313 71.473 60.2209 71.6566 62.555 70.2894C65.8548 68.357 66.9939 64.0606 65.1001 60.694C64.2793 59.2353 63.0231 58.1907 61.5952 57.6321Z" fill="#FBFDFD"/>
<path fill-rule="evenodd" clip-rule="evenodd" d="M59.8366 65.3057C60.1308 67.15 58.4437 68.9642 56.0681 69.3587C53.6935 69.7527 51.5296 68.5775 51.2354 66.7337C50.9417 64.8894 52.6282 63.0753 55.0039 62.6807C57.3784 62.2862 59.5423 63.462 59.8366 65.3057Z" fill="#C5B132"/>
<path fill-rule="evenodd" clip-rule="evenodd" d="M48.6216 62.2404L33.0178 62.6383C30.0204 62.7153 27.5305 60.2979 27.455 57.2393L27.1914 46.477L53.649 45.8018L53.9126 56.5646C53.9875 59.6226 51.6185 62.1639 48.6216 62.2404Z" fill="#C7C1C2"/>
<path fill-rule="evenodd" clip-rule="evenodd" d="M79.3628 61.4576L63.759 61.8555C60.7616 61.9325 58.2717 59.5151 58.1962 56.457L57.9326 45.6942L84.3902 45.0195L84.6538 55.7818C84.7287 58.8398 82.3597 61.3811 79.3628 61.4576Z" fill="#C7C1C2"/>
<path fill-rule="evenodd" clip-rule="evenodd" d="M66.8431 55.6523L45.811 56.1892L45.5605 45.9665L66.5926 45.4297L66.8431 55.6523Z" fill="#C7C1C2"/>
<path fill-rule="evenodd" clip-rule="evenodd" d="M47.2239 59.8978L34.3162 60.2271C33.2339 60.255 32.3349 59.3822 32.3081 58.2784L32.1227 50.7198C32.0959 49.616 32.9506 48.6986 34.0329 48.6707L46.9407 48.3414C48.0224 48.3141 48.9214 49.1869 48.9488 50.2907L49.1342 57.8487C49.161 58.9531 48.3062 59.8705 47.2239 59.8978Z" fill="#1172A3"/>
<path fill-rule="evenodd" clip-rule="evenodd" d="M78.2 59.1078L65.2922 59.437C64.2105 59.4649 63.3115 58.5922 63.2847 57.4878L63.0993 49.9298C63.0719 48.826 63.9272 47.9086 65.0089 47.8807L77.9167 47.5514C78.999 47.5235 79.898 48.3963 79.9248 49.5007L80.1102 57.0587C80.137 58.1625 79.2823 59.0799 78.2 59.1078Z" fill="#E73B4D"/>
<path fill-rule="evenodd" clip-rule="evenodd" d="M84.3926 45.0195L86.0338 45.9247L86.4384 49.2176L84.6562 55.7818L84.3926 45.0195Z" fill="#9B9697"/>
<path fill-rule="evenodd" clip-rule="evenodd" d="M27.442 46.4727L25.8473 47.4604L25.6045 50.7701L27.7056 57.2349L27.442 46.4727Z" fill="#9B9697"/>
</svg>
