<svg width="18" height="18" viewBox="0 0 18 18" fill="none" xmlns="http://www.w3.org/2000/svg">
<rect width="18" height="18" rx="9" fill="white"/>
<path fill-rule="evenodd" clip-rule="evenodd" d="M6 5.45048C6 5.45048 6 5 6.45366 5H10.673C13.1365 5 14 6.79004 14 8.07571C14 10.2564 12.5269 11.2773 10.4445 11.2773H9.24742C9.24742 11.2773 8.7936 11.2773 8.7936 11.7277V13.5497C8.7936 13.5497 8.7936 14 8.33994 14H6.45366C6.45366 14 6 14 6 13.5497V5.45048ZM8.7936 8.68407C8.7936 8.68407 8.7936 9.13455 9.24742 9.13455H9.87301C10.5969 9.13455 11.3587 9.08415 11.3587 8.1765C11.3587 7.35714 10.7239 7.30675 10.038 7.30675H9.24742C9.24742 7.30675 8.7936 7.30675 8.7936 7.75707V8.68407Z" fill="#E50A84"/>
</svg>
